<svg width="100%" height="100%" viewBox="0 0 52 52" fill="none" xmlns="http://www.w3.org/2000/svg">
<path d="M25.8728 23.4503C24.8925 23.4503 24.0533 23.1009 23.3552 22.402C22.6571 21.7032 22.3081 20.863 22.3081 19.8816C22.3081 18.9002 22.6571 18.0601 23.3552 17.3612C24.0533 16.6624 24.8925 16.3129 25.8728 16.3129C26.8531 16.3129 27.6923 16.6624 28.3904 17.3612C29.0885 18.0601 29.4376 18.9002 29.4376 19.8816C29.4376 20.863 29.0885 21.7032 28.3904 22.402C27.6923 23.1009 26.8531 23.4503 25.8728 23.4503ZM20.5257 50.2156V28.8034C19.0701 28.6844 17.5996 28.5209 16.1143 28.3127C14.629 28.1045 13.1734 27.8369 11.7475 27.5097C11.2425 27.3908 10.834 27.1083 10.5221 26.6622C10.2102 26.2161 10.1285 25.7403 10.277 25.2347C10.4255 24.7291 10.7374 24.3574 11.2127 24.1195C11.688 23.8816 12.1931 23.8221 12.7278 23.941C14.8072 24.3871 16.9684 24.7143 19.2112 24.9224C21.454 25.1306 23.6746 25.2347 25.8728 25.2347C28.0711 25.2347 30.2916 25.1306 32.5345 24.9224C34.7773 24.7143 36.9384 24.3871 39.0179 23.941C39.5526 23.8221 40.0576 23.8816 40.5329 24.1195C41.0082 24.3574 41.3201 24.7291 41.4687 25.2347C41.6172 25.7403 41.5355 26.2161 41.2236 26.6622C40.9117 27.1083 40.5032 27.3908 39.9982 27.5097C38.5723 27.8369 37.1167 28.1045 35.6314 28.3127C34.146 28.5209 32.6756 28.6844 31.22 28.8034V50.2156C31.22 50.7212 31.0492 51.145 30.7075 51.487C30.3659 51.829 29.9426 52 29.4376 52C28.9326 52 28.5093 51.829 28.1676 51.487C27.826 51.145 27.6552 50.7212 27.6552 50.2156V41.2939H24.0904V50.2156C24.0904 50.7212 23.9196 51.145 23.578 51.487C23.2364 51.829 22.8131 52 22.3081 52C21.8031 52 21.3797 51.829 21.0381 51.487C20.6965 51.145 20.5257 50.7212 20.5257 50.2156Z" fill="#EF9A82"/>
<path d="M25.9744 9.30099C25.8517 9.30099 25.7269 9.27907 25.5998 9.23522C25.4728 9.19137 25.3611 9.1212 25.2647 9.02473L24.358 8.19593C23.4294 7.3452 22.5905 6.50105 21.8415 5.66348C21.0925 4.82591 20.7179 3.90282 20.7179 2.89423C20.7179 2.06981 20.9939 1.38134 21.5458 0.828802C22.0978 0.276267 22.7855 0 23.609 0C24.0733 0 24.5113 0.0986668 24.9231 0.296001C25.3348 0.493334 25.6853 0.763024 25.9744 1.10507C26.2635 0.763024 26.6139 0.493334 27.0256 0.296001C27.4374 0.0986668 27.8754 0 28.3397 0C29.1632 0 29.851 0.276267 30.4029 0.828802C30.9548 1.38134 31.2308 2.06981 31.2308 2.89423C31.2308 3.90282 30.8584 4.8281 30.1138 5.67006C29.3691 6.51201 28.5237 7.35836 27.5776 8.20908L26.684 9.02473C26.5876 9.1212 26.4759 9.19137 26.3489 9.23522C26.2218 9.27907 26.097 9.30099 25.9744 9.30099Z" fill="#E4572E"/>
<path d="M6 18.6809V13.9449C6 13.7783 6.03723 13.6204 6.1117 13.4713C6.18616 13.3222 6.2891 13.1994 6.42051 13.103L9.57436 10.735C9.75833 10.5946 9.96859 10.5245 10.2051 10.5245C10.4417 10.5245 10.6519 10.5946 10.8359 10.735L13.9897 13.103C14.1212 13.1994 14.2241 13.3222 14.2986 13.4713C14.373 13.6204 14.4103 13.7783 14.4103 13.9449V18.6809C14.4103 18.9703 14.3073 19.2181 14.1014 19.4242C13.8956 19.6303 13.6481 19.7334 13.359 19.7334H11.7821C11.6331 19.7334 11.5083 19.6829 11.4075 19.5821C11.3068 19.4812 11.2564 19.3562 11.2564 19.2071V16.576C11.2564 16.4269 11.206 16.302 11.1053 16.2011C11.0045 16.1002 10.8797 16.0498 10.7308 16.0498H9.67949C9.53056 16.0498 9.40572 16.1002 9.30497 16.2011C9.20422 16.302 9.15385 16.4269 9.15385 16.576V19.2071C9.15385 19.3562 9.10347 19.4812 9.00272 19.5821C8.90198 19.6829 8.77714 19.7334 8.62821 19.7334H7.05128C6.76218 19.7334 6.51469 19.6303 6.30881 19.4242C6.10294 19.2181 6 18.9703 6 18.6809Z" fill="#E4572E"/>
<path d="M41.218 16.3129V15.2605H42.2692V16.3129H41.218ZM40.6923 11.5769H42.7949V10.5245H40.6923V11.5769ZM37.5385 19.4703C37.2494 19.4703 37.0019 19.3672 36.796 19.1611C36.5901 18.955 36.4872 18.7072 36.4872 18.4178V16.3129H40.1667V16.8391C40.1667 16.9882 40.217 17.1132 40.3178 17.2141C40.4185 17.3149 40.5434 17.3654 40.6923 17.3654H42.7949C42.9438 17.3654 43.0686 17.3149 43.1694 17.2141C43.2701 17.1132 43.3205 16.9882 43.3205 16.8391V16.3129H47V18.4178C47 18.7072 46.8971 18.955 46.6912 19.1611C46.4853 19.3672 46.2378 19.4703 45.9487 19.4703H37.5385ZM36.4872 15.2605V12.6294C36.4872 12.3399 36.5901 12.0922 36.796 11.8861C37.0019 11.68 37.2494 11.5769 37.5385 11.5769H39.641V10.5245C39.641 10.235 39.744 9.98728 39.9498 9.78117C40.1557 9.57507 40.4032 9.47202 40.6923 9.47202H42.7949C43.084 9.47202 43.3315 9.57507 43.5373 9.78117C43.7432 9.98728 43.8462 10.235 43.8462 10.5245V11.5769H45.9487C46.2378 11.5769 46.4853 11.68 46.6912 11.8861C46.8971 12.0922 47 12.3399 47 12.6294V15.2605H43.3205V14.7342C43.3205 14.5852 43.2701 14.4602 43.1694 14.3593C43.0686 14.2585 42.9438 14.208 42.7949 14.208H40.6923C40.5434 14.208 40.4185 14.2585 40.3178 14.3593C40.217 14.4602 40.1667 14.5852 40.1667 14.7342V15.2605H36.4872Z" fill="#E4572E"/>
</svg>


