<svg width="40" height="40" viewBox="0 0 40 40" fill="none" xmlns="http://www.w3.org/2000/svg">
<mask id="mask0_1002_2635" style="mask-type:alpha" maskUnits="userSpaceOnUse" x="0" y="0" width="40" height="40">
<rect width="40" height="40" fill="#D9D9D9"/>
</mask>
<g mask="url(#mask0_1002_2635)">
<path d="M27.5417 32.7913L33.4583 26.8747C33.7917 26.5413 34.1806 26.3816 34.625 26.3955C35.0694 26.4094 35.4583 26.583 35.7917 26.9163C36.0972 27.2497 36.25 27.6386 36.25 28.083C36.25 28.5275 36.0972 28.9163 35.7917 29.2497L28.75 36.333C28.4167 36.6663 28.0278 36.833 27.5833 36.833C27.1389 36.833 26.75 36.6663 26.4167 36.333L22.8333 32.7497C22.5278 32.4441 22.375 32.0552 22.375 31.583C22.375 31.1108 22.5278 30.7219 22.8333 30.4163C23.1389 30.1108 23.5278 29.958 24 29.958C24.4722 29.958 24.8611 30.1108 25.1667 30.4163L27.5417 32.7913Z" fill="#E4572E"/>
<path fill-rule="evenodd" clip-rule="evenodd" d="M8.33333 36.6663C7.41667 36.6663 6.63194 36.34 5.97917 35.6872C5.32639 35.0344 5 34.2497 5 33.333V9.99967C5 9.08301 5.32639 8.29829 5.97917 7.64551C6.63194 6.99273 7.41667 6.66634 8.33333 6.66634H10V4.99967C10 4.52745 10.1597 4.13162 10.4792 3.81217C10.7986 3.49273 11.1944 3.33301 11.6667 3.33301C12.1389 3.33301 12.5347 3.49273 12.8542 3.81217C13.1736 4.13162 13.3333 4.52745 13.3333 4.99967V6.66634H26.6667V4.99967C26.6667 4.52745 26.8264 4.13162 27.1458 3.81217C27.4653 3.49273 27.8611 3.33301 28.3333 3.33301C28.8056 3.33301 29.2014 3.49273 29.5208 3.81217C29.8403 4.13162 30 4.52745 30 4.99967V6.66634H31.6667C32.5833 6.66634 33.3681 6.99273 34.0208 7.64551C34.6736 8.29829 35 9.08301 35 9.99967V20.833C35 21.3052 34.8403 21.6941 34.5208 21.9997C34.2014 22.3052 33.8056 22.458 33.3333 22.458C32.8611 22.458 32.4653 22.2983 32.1458 21.9788C31.8264 21.6594 31.6667 21.2636 31.6667 20.7913V16.6663H8.33333V33.333H18.3333C18.8056 33.333 19.2014 33.4927 19.5208 33.8122C19.8403 34.1316 20 34.5275 20 34.9997C20 35.4719 19.8403 35.8677 19.5208 36.1872C19.2014 36.5066 18.8056 36.6663 18.3333 36.6663H8.33333ZM31.6667 13.333H8.33333V9.99967H31.6667V13.333Z" fill="#F4BCAB"/>
</g>
</svg>
