<svg width="101" height="101" viewBox="0 0 101 101" fill="none" xmlns="http://www.w3.org/2000/svg">
<path d="M11 23.0082C11 19.8937 13.5264 17.3689 16.6429 17.3689H84.3571C87.4736 17.3689 90 19.8937 90 23.0082V87.8607C90 90.9752 87.4736 93.5 84.3571 93.5H16.6429C13.5264 93.5 11 90.9752 11 87.8607V23.0082Z" fill="#FFE9E3"/>
<path fill-rule="evenodd" clip-rule="evenodd" d="M84.3571 21.5984H16.6429C15.8637 21.5984 15.2321 22.2296 15.2321 23.0082V87.8607C15.2321 88.6393 15.8637 89.2705 16.6429 89.2705H84.3571C85.1363 89.2705 85.7679 88.6393 85.7679 87.8607V23.0082C85.7679 22.2296 85.1363 21.5984 84.3571 21.5984ZM16.6429 17.3689C13.5264 17.3689 11 19.8937 11 23.0082V87.8607C11 90.9752 13.5264 93.5 16.6429 93.5H84.3571C87.4736 93.5 90 90.9752 90 87.8607V23.0082C90 19.8937 87.4736 17.3689 84.3571 17.3689H16.6429Z" fill="#EF9A82"/>
<path fill-rule="evenodd" clip-rule="evenodd" d="M85.7679 42.7459H15.2321V38.5164H85.7679V42.7459Z" fill="#EF9A82"/>
<path fill-rule="evenodd" clip-rule="evenodd" d="M30.0446 7.5C31.2133 7.5 32.1607 8.27972 32.1607 9.24156V17.3689H27.9286V9.24156C27.9286 8.27972 28.876 7.5 30.0446 7.5Z" fill="#EF9A82"/>
<path fill-rule="evenodd" clip-rule="evenodd" d="M70.9554 7.5C72.124 7.5 73.0714 8.27972 73.0714 9.24156V17.3689H68.8393V9.24156C68.8393 8.27972 69.7867 7.5 70.9554 7.5Z" fill="#EF9A82"/>
<path d="M48.6476 57.2506L56.1116 50.2578C56.4406 49.9493 56.8303 49.7951 57.2807 49.7951C57.7311 49.7951 58.1279 49.9493 58.4711 50.2578C58.7999 50.5798 58.9643 50.952 58.9643 51.3746C58.9643 51.7972 58.7999 52.1695 58.4711 52.4915L49.8595 60.6011C49.5093 60.9162 49.1018 61.0738 48.637 61.0738C48.1722 61.0738 47.7719 60.9162 47.436 60.6011L43.9505 57.3209C43.6073 56.999 43.4394 56.6267 43.4467 56.2041C43.4537 55.7815 43.6289 55.4093 43.972 55.0873C44.3008 54.7788 44.6941 54.6246 45.1518 54.6246C45.6093 54.6246 46.0096 54.7788 46.3528 55.0873L48.6476 57.2506Z" fill="#E4572E"/>
<path d="M30.75 55.4344C30.75 57.7703 28.8552 59.6639 26.5179 59.6639C24.1805 59.6639 22.2857 57.7703 22.2857 55.4344C22.2857 53.0985 24.1805 51.2049 26.5179 51.2049C28.8552 51.2049 30.75 53.0985 30.75 55.4344Z" fill="#E97958"/>
<path d="M78.7143 55.4344C78.7143 57.7703 76.8195 59.6639 74.4821 59.6639C72.1448 59.6639 70.25 57.7703 70.25 55.4344C70.25 53.0985 72.1448 51.2049 74.4821 51.2049C76.8195 51.2049 78.7143 53.0985 78.7143 55.4344Z" fill="#E97958"/>
<path d="M78.7143 73.7623C78.7143 76.0982 76.8195 77.9918 74.4821 77.9918C72.1448 77.9918 70.25 76.0982 70.25 73.7623C70.25 71.4264 72.1448 69.5328 74.4821 69.5328C76.8195 69.5328 78.7143 71.4264 78.7143 73.7623Z" fill="#E97958"/>
<path d="M54.7321 73.7623C54.7321 76.0982 52.8373 77.9918 50.5 77.9918C48.1627 77.9918 46.2679 76.0982 46.2679 73.7623C46.2679 71.4264 48.1627 69.5328 50.5 69.5328C52.8373 69.5328 54.7321 71.4264 54.7321 73.7623Z" fill="#E97958"/>
<path d="M30.75 73.7623C30.75 76.0982 28.8552 77.9918 26.5179 77.9918C24.1805 77.9918 22.2857 76.0982 22.2857 73.7623C22.2857 71.4264 24.1805 69.5328 26.5179 69.5328C28.8552 69.5328 30.75 71.4264 30.75 73.7623Z" fill="#E97958"/>
</svg>
