<svg width="24" height="24" viewBox="0 0 24 24" fill="none" xmlns="http://www.w3.org/2000/svg">
<mask id="mask0_780_880" style="mask-type:alpha" maskUnits="userSpaceOnUse" x="0" y="0" width="24" height="24">
<rect width="24" height="24" fill="#D9D9D9"/>
</mask>
<g mask="url(#mask0_780_880)">
<path d="M5.07175 22.2033C4.44209 22.2033 3.9055 21.9815 3.462 21.538C3.0185 21.0945 2.79675 20.5579 2.79675 19.9283V6.07175C2.79675 5.44209 3.0185 4.9055 3.462 4.462C3.9055 4.0185 4.44209 3.79675 5.07175 3.79675H6V2.8625C6 2.56317 6.10384 2.31075 6.3115 2.10525C6.519 1.89959 6.77242 1.79675 7.07175 1.79675C7.37109 1.79675 7.6235 1.89959 7.829 2.10525C8.03467 2.31075 8.1375 2.56317 8.1375 2.8625V3.79675H15.8625V2.8625C15.8625 2.56317 15.9663 2.31075 16.174 2.10525C16.3815 1.89959 16.6349 1.79675 16.9343 1.79675C17.2336 1.79675 17.486 1.89959 17.6915 2.10525C17.8972 2.31075 18 2.56317 18 2.8625V3.79675H18.9283C19.5579 3.79675 20.0945 4.0185 20.538 4.462C20.9815 4.9055 21.2033 5.44209 21.2033 6.07175V19.9283C21.2033 20.5579 20.9815 21.0945 20.538 21.538C20.0945 21.9815 19.5579 22.2033 18.9283 22.2033H5.07175ZM5.07175 19.9283H18.9283V10H5.07175V19.9283ZM5.07175 8H18.9283V6.07175H5.07175V8Z" fill="#2E2E2E"/>
</g>
</svg>
