<svg width="40" height="40" viewBox="0 0 40 40" fill="none" xmlns="http://www.w3.org/2000/svg">
<mask id="mask0_1002_2752" style="mask-type:alpha" maskUnits="userSpaceOnUse" x="0" y="0" width="40" height="40">
<rect width="40" height="40" fill="#D9D9D9"/>
</mask>
<g mask="url(#mask0_1002_2752)">
<path fill-rule="evenodd" clip-rule="evenodd" d="M30 38.333C27.6944 38.333 25.7292 37.5205 24.1042 35.8955C22.4792 34.2705 21.6667 32.3052 21.6667 29.9997C21.6667 27.6941 22.4792 25.7288 24.1042 24.1038C25.7292 22.4788 27.6944 21.6663 30 21.6663C32.3056 21.6663 34.2708 22.4788 35.8958 24.1038C37.5208 25.7288 38.3333 27.6941 38.3333 29.9997C38.3333 32.3052 37.5208 34.2705 35.8958 35.8955C34.2708 37.5205 32.3056 38.333 30 38.333ZM30.8333 25.833V29.6663L33.375 32.208C33.5417 32.3747 33.625 32.5691 33.625 32.7913C33.625 33.0136 33.5417 33.208 33.375 33.3747C33.2083 33.5413 33.0139 33.6247 32.7917 33.6247C32.5694 33.6247 32.375 33.5413 32.2083 33.3747L29.6667 30.833C29.5 30.6663 29.375 30.4788 29.2917 30.2705C29.2083 30.0622 29.1667 29.8469 29.1667 29.6247V25.833C29.1667 25.6108 29.25 25.4163 29.4167 25.2497C29.5833 25.083 29.7778 24.9997 30 24.9997C30.2222 24.9997 30.4167 25.083 30.5833 25.2497C30.75 25.4163 30.8333 25.6108 30.8333 25.833Z" fill="#E4572E"/>
<path fill-rule="evenodd" clip-rule="evenodd" d="M8.33333 36.6663C7.41667 36.6663 6.63194 36.34 5.97917 35.6872C5.32639 35.0344 5 34.2497 5 33.333V9.99967C5 9.08301 5.32639 8.29829 5.97917 7.64551C6.63194 6.99273 7.41667 6.66634 8.33333 6.66634H10V4.99967C10 4.52745 10.1597 4.13162 10.4792 3.81217C10.7986 3.49273 11.1944 3.33301 11.6667 3.33301C12.1389 3.33301 12.5347 3.49273 12.8542 3.81217C13.1736 4.13162 13.3333 4.52745 13.3333 4.99967V6.66634H26.6667V4.99967C26.6667 4.52745 26.8264 4.13162 27.1458 3.81217C27.4653 3.49273 27.8611 3.33301 28.3333 3.33301C28.8056 3.33301 29.2014 3.49273 29.5208 3.81217C29.8403 4.13162 30 4.52745 30 4.99967V6.66634H31.6667C32.5833 6.66634 33.3681 6.99273 34.0208 7.64551C34.6736 8.29829 35 9.08301 35 9.99967V17.7913C35 18.2636 34.8403 18.6594 34.5208 18.9788C34.2014 19.2983 33.8056 19.458 33.3333 19.458C32.8611 19.458 32.4653 19.2983 32.1458 18.9788C31.8264 18.6594 31.6667 18.2636 31.6667 17.7913V16.6663H8.33333V33.333H18C18.4722 33.333 18.8681 33.4927 19.1875 33.8122C19.5069 34.1316 19.6667 34.5275 19.6667 34.9997C19.6667 35.4719 19.5069 35.8677 19.1875 36.1872C18.8681 36.5066 18.4722 36.6663 18 36.6663H8.33333ZM31.6667 13.333H8.33333V9.99967H31.6667V13.333Z" fill="#F4BCAB"/>
</g>
</svg>
