<svg width="24" height="25" viewBox="0 0 24 25" fill="none" xmlns="http://www.w3.org/2000/svg">
<mask id="mask0_1007_2972" style="mask-type:alpha" maskUnits="userSpaceOnUse" x="0" y="0" width="24" height="25">
<rect y="0.5" width="24" height="24" fill="#D9D9D9"/>
</mask>
<g mask="url(#mask0_1007_2972)">
<path d="M10 14.5C10.2833 14.5 10.5208 14.4042 10.7125 14.2125C10.9042 14.0208 11 13.7833 11 13.5V10.5C11 10.2167 10.9042 9.97917 10.7125 9.7875C10.5208 9.59583 10.2833 9.5 10 9.5C9.71667 9.5 9.47917 9.59583 9.2875 9.7875C9.09583 9.97917 9 10.2167 9 10.5V13.5C9 13.7833 9.09583 14.0208 9.2875 14.2125C9.47917 14.4042 9.71667 14.5 10 14.5ZM5 13C4.23333 12.6167 3.625 12.0625 3.175 11.3375C2.725 10.6125 2.5 9.825 2.5 8.975C2.5 7.725 2.92917 6.66667 3.7875 5.8C4.64583 4.93333 5.7 4.5 6.95 4.5C7.15 4.5 7.35417 4.51667 7.5625 4.55C7.77083 4.58333 7.975 4.625 8.175 4.675C8.59167 3.99167 9.13333 3.45833 9.8 3.075C10.4667 2.69167 11.2 2.5 12 2.5C12.8 2.5 13.5333 2.69167 14.2 3.075C14.8667 3.45833 15.4083 3.99167 15.825 4.675C16.025 4.625 16.225 4.58333 16.425 4.55C16.625 4.51667 16.8333 4.5 17.05 4.5C18.3 4.5 19.3542 4.93333 20.2125 5.8C21.0708 6.66667 21.5 7.725 21.5 8.975C21.5 9.825 21.275 10.6125 20.825 11.3375C20.375 12.0625 19.7667 12.6167 19 13V18.5H5V13ZM14 14.5C14.2833 14.5 14.5208 14.4042 14.7125 14.2125C14.9042 14.0208 15 13.7833 15 13.5V10.5C15 10.2167 14.9042 9.97917 14.7125 9.7875C14.5208 9.59583 14.2833 9.5 14 9.5C13.7167 9.5 13.4792 9.59583 13.2875 9.7875C13.0958 9.97917 13 10.2167 13 10.5V13.5C13 13.7833 13.0958 14.0208 13.2875 14.2125C13.4792 14.4042 13.7167 14.5 14 14.5ZM7 16.5H17V11.775L18.1 11.225C18.5333 11.0083 18.875 10.7042 19.125 10.3125C19.375 9.92083 19.5 9.48333 19.5 9C19.5 8.3 19.2625 7.70833 18.7875 7.225C18.3125 6.74167 17.7333 6.5 17.05 6.5C16.8667 6.5 16.7 6.51667 16.55 6.55C16.4 6.58333 16.2417 6.625 16.075 6.675L14.9 7L14.125 5.7C13.8917 5.31667 13.5875 5.02083 13.2125 4.8125C12.8375 4.60417 12.4333 4.5 12 4.5C11.5667 4.5 11.1625 4.60417 10.7875 4.8125C10.4125 5.02083 10.1083 5.31667 9.875 5.7L9.1 7L7.9 6.675C7.73333 6.64167 7.57083 6.60417 7.4125 6.5625C7.25417 6.52083 7.09167 6.5 6.925 6.5C6.24167 6.5 5.66667 6.74167 5.2 7.225C4.73333 7.70833 4.5 8.3 4.5 9C4.5 9.48333 4.625 9.92083 4.875 10.3125C5.125 10.7042 5.46667 11.0083 5.9 11.225L7 11.775V16.5ZM5 18.5H7V20.5H17V18.5H19V20.5C19 21.05 18.8042 21.5208 18.4125 21.9125C18.0208 22.3042 17.55 22.5 17 22.5H7C6.45 22.5 5.97917 22.3042 5.5875 21.9125C5.19583 21.5208 5 21.05 5 20.5V18.5Z" fill="#E97958"/>
</g>
</svg>
