<svg viewBox="0 0 52 52" fill="none" xmlns="http://www.w3.org/2000/svg">
<path fill-rule="evenodd" clip-rule="evenodd" d="M18.5699 48.9493C16.8525 48.9493 15.3313 48.4676 14.0065 47.5043C12.6816 46.5409 11.7449 45.2946 11.1963 43.7654C10.6289 44.7011 9.92034 45.4259 9.07066 45.9401C8.22099 46.4545 7.20766 46.7118 6.03067 46.7118C4.33238 46.7118 2.92028 46.1422 1.79436 45.0031C0.668431 43.8643 0.105469 42.5174 0.105469 40.9625C0.105469 39.2457 0.671622 37.8904 1.80393 36.8967C2.93659 35.9029 4.37015 35.4053 6.10461 35.404C5.45778 34.7279 4.95918 33.9395 4.60881 33.0387C4.25844 32.1375 4.08326 31.2213 4.08326 30.2901C4.08326 29.6471 4.16731 29.0257 4.3354 28.4257C4.50349 27.8254 4.75562 27.2467 5.09181 26.6896C5.35671 26.2935 5.72108 26.0342 6.18493 25.9118C6.64877 25.7895 7.09046 25.8547 7.50997 26.1076C7.92984 26.3604 8.20184 26.7079 8.32596 27.15C8.45007 27.5918 8.37951 28.0108 8.11425 28.4069C7.92843 28.7152 7.78445 29.0367 7.68232 29.3713C7.58019 29.7063 7.52912 30.0582 7.52912 30.4269C7.52912 32.3442 8.31142 33.5689 9.87601 34.1009C11.4406 34.6329 13.0047 35.0228 14.5682 35.2706C14.7551 35.3162 14.9255 35.3928 15.0794 35.5003C15.2333 35.6081 15.354 35.7395 15.4416 35.8943C15.5374 36.041 15.59 36.1968 15.5996 36.3617C15.6095 36.5264 15.5748 36.7013 15.4953 36.8865C15.1138 37.9114 14.8077 38.7685 14.5772 39.4577C14.3467 40.1466 14.2315 40.8113 14.2315 41.4518C14.2315 42.569 14.6689 43.5504 15.5438 44.3962C16.4183 45.2419 17.4555 45.6647 18.6556 45.6647C19.8783 45.6647 20.9202 45.2162 21.7812 44.3191C22.6422 43.4223 23.357 42.3298 23.9254 41.0416C24.4939 39.7531 24.9552 38.3801 25.3095 36.9225C25.6641 35.465 25.9521 34.1695 26.1734 33.0361C26.261 32.573 26.4996 32.2149 26.8893 31.9617C27.2794 31.7089 27.7052 31.6372 28.1665 31.7468C28.6587 31.8901 29.0219 32.1718 29.2559 32.592C29.4896 33.0125 29.5492 33.4762 29.4346 33.9833C29.107 35.4706 28.7151 37.0914 28.2591 38.8457C27.803 40.6 27.1718 42.23 26.3654 43.7355C25.5593 45.241 24.5347 46.4863 23.2914 47.4713C22.048 48.4566 20.4742 48.9493 18.5699 48.9493ZM7.88605 42.7402C7.39915 43.1982 6.79523 43.4272 6.07429 43.4272C5.35334 43.4272 4.75261 43.1952 4.2721 42.7311C3.79159 42.2673 3.55133 41.6917 3.55133 41.0041C3.55133 40.3169 3.7946 39.7443 4.28114 39.2863C4.76804 38.8283 5.37196 38.5993 6.0929 38.5993C6.8142 38.5993 7.41511 38.8313 7.89562 39.2954C8.37614 39.7592 8.61639 40.3348 8.61639 41.0224C8.61639 41.7096 8.37294 42.2822 7.88605 42.7402Z" fill="#E4572E"/>
<path fill-rule="evenodd" clip-rule="evenodd" d="M33.3002 49C32.8098 48.9662 32.3924 48.7928 32.048 48.4798C31.7033 48.1664 31.5487 47.7745 31.5842 47.304C31.6196 46.8331 31.8079 46.4358 32.1491 46.1119C32.4902 45.7881 32.9075 45.6431 33.4007 45.6769C34.6164 45.6769 35.646 45.2515 36.4897 44.4007C37.333 43.5503 37.7546 42.5634 37.7546 41.4402C37.7546 40.7814 37.6262 40.0866 37.3695 39.3558C37.1127 38.6253 36.7978 37.7475 36.4248 36.7222C36.3538 36.5789 36.3273 36.4315 36.345 36.2801C36.3627 36.1287 36.4113 35.9813 36.4907 35.838C36.5702 35.695 36.6702 35.5845 36.7907 35.5064C36.9113 35.4286 37.0629 35.371 37.2455 35.3335C38.8137 35.0769 40.4077 34.6919 42.0276 34.1785C43.6472 33.6647 44.457 32.4358 44.457 30.4918C44.457 29.0248 43.8958 27.94 42.7734 27.2372C41.6514 26.5348 40.4247 26.1836 39.0935 26.1836C37.7282 26.1836 36.1778 26.3945 34.4423 26.8164C32.7071 27.2382 30.795 27.7684 28.7059 28.4069C28.2194 28.5584 27.7527 28.5415 27.3059 28.3562C26.8594 28.171 26.5787 27.8509 26.4638 27.3959C26.3404 26.9494 26.4223 26.524 26.7096 26.1197C26.9968 25.7155 27.4012 25.4248 27.9229 25.2476C30.0772 24.5827 32.0697 24.025 33.9002 23.5744C35.7311 23.1242 37.4544 22.8991 39.0701 22.8991C41.3801 22.8991 43.4296 23.5565 45.2187 24.8714C47.0081 26.1863 47.9028 28.0368 47.9028 30.4229C47.9028 31.3386 47.7276 32.2371 47.3773 33.1183C47.0269 33.9998 46.5326 34.7786 45.8942 35.4547C47.5847 35.456 49.0073 35.9631 50.1619 36.9758C51.3162 37.9885 51.8934 39.3343 51.8934 41.0132C51.8934 42.5681 51.3304 43.915 50.2045 45.0538C49.0786 46.1929 47.6665 46.7625 45.9682 46.7625C44.8267 46.7625 43.8112 46.5032 42.9218 45.9847C42.0324 45.4665 41.3217 44.7396 40.7898 43.8039C40.2057 45.3413 39.2492 46.5916 37.92 47.555C36.5909 48.5183 35.051 49 33.3002 49ZM47.7172 42.7884C47.2306 43.2481 46.6487 43.4779 45.9714 43.4779C45.294 43.4779 44.6933 43.2281 44.1692 42.7285C43.6447 42.2286 43.3825 41.6568 43.3825 41.0132C43.3825 40.3656 43.6348 39.8014 44.1394 39.3208C44.6437 38.8398 45.2355 38.5993 45.915 38.5993C46.5944 38.5993 47.1863 38.8491 47.6906 39.3487C48.1952 39.8486 48.4475 40.4204 48.4475 41.0639C48.4475 41.7538 48.2041 42.3287 47.7172 42.7884Z" fill="#EF9A82"/>
<path fill-rule="evenodd" clip-rule="evenodd" d="M20.3359 32.2594C17.7905 30.0534 15.6776 27.9883 13.9974 26.064C12.3172 24.1399 11.4771 22.0615 11.4771 19.8285C11.4771 17.7655 12.2341 16.0122 13.7479 14.5685C15.2618 13.1252 17.1005 12.4035 19.2641 12.4035C19.5662 12.4035 19.8613 12.412 20.1492 12.4289C20.4372 12.4458 20.7102 12.484 20.9684 12.5435C20.6241 11.9496 20.3746 11.4359 20.22 11.0026C20.0654 10.5693 19.9881 10.1346 19.9881 9.69852C19.9881 8.11557 20.5702 6.77008 21.7344 5.66205C22.8983 4.55402 24.3118 4 25.975 4C27.6381 4 29.0488 4.55402 30.207 5.66205C31.3656 6.77008 31.9448 8.11557 31.9448 9.69852C31.9448 10.1038 31.8764 10.5321 31.7395 10.9833C31.6026 11.4346 31.3443 11.9587 30.9645 12.5556C31.2397 12.4961 31.5134 12.4559 31.7858 12.435C32.0585 12.414 32.3526 12.4035 32.6683 12.4035C33.6591 12.4035 34.5798 12.5638 35.4306 12.8842C36.2813 13.2046 37.0521 13.6392 37.7429 14.1878C38.1145 14.4906 38.3202 14.8591 38.3599 15.2931C38.3997 15.7268 38.2607 16.1248 37.9429 16.4872C37.6255 16.8495 37.2392 17.0391 36.7838 17.056C36.3285 17.0729 35.9132 16.93 35.538 16.6271C35.1685 16.331 34.7444 16.1005 34.2657 15.9355C33.7869 15.7706 33.2546 15.6881 32.6688 15.6881C31.4007 15.6881 30.3879 16.0234 29.6304 16.694C28.8729 17.3647 27.9295 18.3355 26.8 19.6064C26.6851 19.7578 26.5459 19.863 26.3824 19.9218C26.2186 19.9806 26.0565 20.01 25.8962 20.01C25.7356 20.01 25.5881 19.9806 25.4537 19.9218C25.3193 19.863 25.1946 19.7578 25.0797 19.6064C23.9233 18.3094 22.9752 17.3322 22.2355 16.6748C21.4961 16.017 20.5035 15.6881 19.2577 15.6881C18.0045 15.6881 16.9688 16.079 16.1507 16.8608C15.3322 17.6427 14.923 18.6292 14.923 19.8204C14.923 21.3181 15.6528 22.8818 17.1124 24.5114C18.5724 26.1407 20.4999 27.9697 22.8951 29.9985C23.3022 30.3271 23.5302 30.7251 23.5791 31.1926C23.6281 31.6604 23.4793 32.05 23.1328 32.3613C22.7506 32.7328 22.291 32.8975 21.7541 32.8556C21.2172 32.8137 20.7445 32.615 20.3359 32.2594ZM27.7686 11.4255C27.2821 11.8835 26.6782 12.1125 25.9569 12.1125C25.2359 12.1125 24.6352 11.8804 24.1547 11.4163C23.6742 10.9526 23.4339 10.3771 23.4339 9.6899C23.4339 9.00237 23.6774 8.42959 24.1643 7.97157C24.6508 7.51356 25.2547 7.28455 25.976 7.28455C26.697 7.28455 27.2977 7.5166 27.7782 7.9807C28.2587 8.44446 28.499 9.02011 28.499 9.70765C28.499 10.3948 28.2555 10.9674 27.7686 11.4255Z" fill="#EF9A82"/>
</svg>
