<svg width="101" height="100" viewBox="0 0 101 100" fill="none" xmlns="http://www.w3.org/2000/svg">
<path d="M68.2546 43.7127C68.2546 56.9243 57.4537 67.6345 44.1301 67.6345C30.8065 67.6345 20.0056 56.9243 20.0056 43.7127C20.0056 30.5011 30.8065 19.7909 44.1301 19.7909C57.4537 19.7909 68.2546 30.5011 68.2546 43.7127Z" fill="#FFE9E3"/>
<path fill-rule="evenodd" clip-rule="evenodd" d="M44.1301 64.2966C55.5946 64.2966 64.8884 55.0808 64.8884 43.7127C64.8884 32.3445 55.5946 23.1288 44.1301 23.1288C32.6656 23.1288 23.3718 32.3445 23.3718 43.7127C23.3718 55.0808 32.6656 64.2966 44.1301 64.2966ZM44.1301 67.6345C57.4537 67.6345 68.2546 56.9243 68.2546 43.7127C68.2546 30.5011 57.4537 19.7909 44.1301 19.7909C30.8065 19.7909 20.0056 30.5011 20.0056 43.7127C20.0056 56.9243 30.8065 67.6345 44.1301 67.6345Z" fill="#EF9A82"/>
<path d="M35.863 53.1155L47.4762 49.643C48.1175 49.4471 48.6674 49.1218 49.126 48.6671C49.5845 48.2123 49.9125 47.667 50.11 47.031L53.6116 35.5143C53.7338 35.1541 53.6563 34.833 53.3789 34.5508C53.1012 34.269 52.774 34.1887 52.3971 34.3099L40.784 37.7824C40.1427 37.9783 39.5928 38.3036 39.1342 38.7583C38.6757 39.2131 38.3476 39.7584 38.1501 40.3944L34.6486 51.9111C34.5263 52.2713 34.6039 52.5924 34.8812 52.8746C35.1589 53.1564 35.4862 53.2367 35.863 53.1155ZM44.142 45.7337C43.573 45.7337 43.0891 45.5306 42.6903 45.1242C42.2915 44.7175 42.0921 44.2322 42.0921 43.6682C42.0921 43.1039 42.297 42.624 42.7068 42.2286C43.1169 41.8331 43.6063 41.6354 44.1749 41.6354C44.744 41.6354 45.2279 41.8386 45.6266 42.2449C46.0254 42.6516 46.2248 43.1369 46.2248 43.7009C46.2248 44.2652 46.0199 44.7451 45.6102 45.1405C45.2001 45.536 44.7107 45.7337 44.142 45.7337Z" fill="#E97958"/>
<path fill-rule="evenodd" clip-rule="evenodd" d="M57.8346 59.2547C58.7837 58.4643 60.1992 58.5863 60.9964 59.5274L84.5599 87.3434C85.3571 88.2844 85.234 89.6881 84.285 90.4786C83.336 91.2691 81.9204 91.147 81.1232 90.2059L57.5597 62.3899C56.7625 61.4489 56.8856 60.0452 57.8346 59.2547Z" fill="#EF9A82"/>
<path fill-rule="evenodd" clip-rule="evenodd" d="M43.5691 27.5794C42.9493 27.5794 42.447 27.0813 42.447 26.4668V20.9036C42.447 20.2891 42.9493 19.7909 43.5691 19.7909C44.1888 19.7909 44.6911 20.2891 44.6911 20.9036V26.4668C44.6911 27.0813 44.1888 27.5794 43.5691 27.5794Z" fill="#EF9A82"/>
<path fill-rule="evenodd" clip-rule="evenodd" d="M43.5691 67.6345C42.9493 67.6345 42.447 67.1363 42.447 66.5218V60.9586C42.447 60.3441 42.9493 59.846 43.5691 59.846C44.1888 59.846 44.6911 60.3441 44.6911 60.9586V66.5218C44.6911 67.1363 44.1888 67.6345 43.5691 67.6345Z" fill="#EF9A82"/>
<path fill-rule="evenodd" clip-rule="evenodd" d="M68.2546 43.1564C68.2546 43.7709 67.7523 44.269 67.1326 44.269H61.5222C60.9025 44.269 60.4001 43.7709 60.4001 43.1564C60.4001 42.5419 60.9025 42.0437 61.5222 42.0437H67.1326C67.7523 42.0437 68.2546 42.5419 68.2546 43.1564Z" fill="#EF9A82"/>
<path fill-rule="evenodd" clip-rule="evenodd" d="M27.8601 43.1564C27.8601 43.7709 27.3577 44.269 26.738 44.269H21.1276C20.5079 44.269 20.0056 43.7709 20.0056 43.1564C20.0056 42.5419 20.5079 42.0437 21.1276 42.0437H26.738C27.3577 42.0437 27.8601 42.5419 27.8601 43.1564Z" fill="#EF9A82"/>
<path d="M23.0658 16.1341L17.6201 18.3613L15.8712 23.9392L13.6251 18.5392L8 16.8051L13.4457 14.5779L15.1946 9L17.4406 14.3999L23.0658 16.1341Z" fill="#E4572E"/>
<path d="M93 57.975L85.4411 61.0664L83.0137 68.8087L79.896 61.3134L72.0881 58.9063L79.647 55.8149L82.0744 48.0726L85.1921 55.5679L93 57.975Z" fill="#E4572E"/>
</svg>
