<svg width="40" height="40" viewBox="0 0 40 40" fill="none" xmlns="http://www.w3.org/2000/svg">
<mask id="mask0_1002_2673" style="mask-type:alpha" maskUnits="userSpaceOnUse" x="0" y="0" width="40" height="40">
<rect width="40" height="40" fill="#D9D9D9"/>
</mask>
<g mask="url(#mask0_1002_2673)">
<path d="M33.8894 21.1109V33.8884H21.223L20.1257 34.886V36.6663H35.2786C35.6719 36.6663 36.0018 36.5333 36.2682 36.2672C36.5343 36.0008 36.6673 35.6709 36.6673 35.2776V21.1109C36.6673 20.347 36.3954 19.693 35.8515 19.1488C35.3073 18.605 34.6533 18.333 33.8894 18.333H28.329C28.3446 18.3491 28.3601 18.3654 28.3757 18.3818C29.1585 19.208 29.6585 20.1177 29.8757 21.1109H33.8894Z" fill="#F4BCAB"/>
<path d="M28.3061 18.333V21.1109H29.8757C29.6585 20.1177 29.1585 19.208 28.3757 18.3818C28.3601 18.3654 28.3446 18.3491 28.329 18.333H28.3061Z" fill="#E4572E"/>
<path fill-rule="evenodd" clip-rule="evenodd" d="M17.9623 17.2497C17.1637 16.8608 16.3432 16.6663 15.5007 16.6663C14.0007 16.6663 12.7176 17.2219 11.6515 18.333H11.6673V21.1109H10.1233C10.0415 21.4917 10.0007 21.8852 10.0007 22.2913C10.0007 23.7636 10.5215 25.208 11.5632 26.6247C12.6048 28.0413 14.8062 30.2775 18.1673 33.333L18.7783 33.8884H20.1257H21.223L21.834 33.333C25.1395 30.3052 27.327 28.0761 28.3965 26.6455C29.4659 25.215 30.0007 23.7636 30.0007 22.2913C30.0007 21.8856 29.959 21.4921 29.8757 21.1109H28.3061V18.333H28.329C27.2553 17.2219 25.9792 16.6663 24.5007 16.6663C23.6304 16.6663 22.8029 16.8608 22.0182 17.2497C21.2337 17.6386 20.5612 18.1663 20.0007 18.833C19.4404 18.1663 18.7609 17.6386 17.9623 17.2497ZM14.2369 25.5084C13.2647 24.2829 12.7786 23.2105 12.7786 22.2913C12.7786 21.4975 13.0355 20.8245 13.5494 20.2726C14.0633 19.7204 14.7107 19.4443 15.4915 19.4443C15.9329 19.4443 16.355 19.5554 16.7577 19.7776C17.1605 19.9998 17.5286 20.2729 17.8619 20.5968L19.8061 22.5551H20.1811L22.0977 20.5968C22.4311 20.2729 22.8011 19.9998 23.2077 19.7776C23.6144 19.5554 24.0454 19.4443 24.5007 19.4443C25.2684 19.4443 25.9141 19.7173 26.4377 20.2634C26.9611 20.8098 27.2227 21.4858 27.2227 22.2913C27.2227 23.2727 26.7262 24.3684 25.7332 25.5784C24.7401 26.7882 22.8293 28.6786 20.0007 31.2497C17.1304 28.6477 15.2091 26.734 14.2369 25.5084Z" fill="#E4572E"/>
<path d="M11.6673 21.1109V18.333H11.6515L11.6119 18.3747C10.8341 19.1994 10.3379 20.1115 10.1233 21.1109H11.6673Z" fill="#E4572E"/>
<path d="M6.1119 33.8884V21.1109H10.1233C10.3379 20.1115 10.8341 19.1994 11.6119 18.3747L11.6515 18.333H6.1119C5.32468 18.333 4.66496 18.605 4.13273 19.1488C3.60023 19.693 3.33398 20.347 3.33398 21.1109V35.2776C3.33398 35.6709 3.46704 36.0008 3.73315 36.2672C3.99954 36.5333 4.3294 36.6663 4.72273 36.6663H20.1257V34.886L20.0007 34.9997L18.7783 33.8884H6.1119Z" fill="#F4BCAB"/>
<path d="M20.1257 33.8884H18.7783L20.0007 34.9997L20.1257 34.886V33.8884Z" fill="#E4572E"/>
<path fill-rule="evenodd" clip-rule="evenodd" d="M31.6673 16.6663C30.2507 16.6663 29.0632 16.1872 28.1048 15.2288C27.1465 14.2705 26.6673 13.083 26.6673 11.6663C26.6673 10.2775 27.1465 9.0969 28.1048 8.12468C29.0632 7.15245 30.2507 6.66634 31.6673 6.66634C33.0562 6.66634 34.2368 7.15245 35.209 8.12468C36.1812 9.0969 36.6673 10.2775 36.6673 11.6663C36.6673 13.083 36.1812 14.2705 35.209 15.2288C34.2368 16.1872 33.0562 16.6663 31.6673 16.6663ZM33.2507 13.2497C32.8248 13.6755 32.297 13.8884 31.6673 13.8884C31.0376 13.8884 30.5098 13.6755 30.084 13.2497C29.6582 12.8238 29.4452 12.2961 29.4452 11.6663C29.4452 11.0366 29.6582 10.5088 30.084 10.083C30.5098 9.65718 31.0376 9.44426 31.6673 9.44426C32.297 9.44426 32.8248 9.65718 33.2507 10.083C33.6765 10.5088 33.8894 11.0366 33.8894 11.6663C33.8894 12.2961 33.6765 12.8238 33.2507 13.2497Z" fill="#F4BCAB"/>
<path fill-rule="evenodd" clip-rule="evenodd" d="M20.0007 14.9997C18.3618 14.9997 16.9798 14.4372 15.8548 13.3122C14.7298 12.1872 14.1673 10.8052 14.1673 9.16634C14.1673 7.55523 14.7298 6.18023 15.8548 5.04134C16.9798 3.90245 18.3618 3.33301 20.0007 3.33301C21.6118 3.33301 22.9868 3.90245 24.1257 5.04134C25.2645 6.18023 25.834 7.55523 25.834 9.16634C25.834 10.8052 25.2645 12.1872 24.1257 13.3122C22.9868 14.4372 21.6118 14.9997 20.0007 14.9997ZM22.1602 11.3468C21.563 11.9301 20.8445 12.2218 20.0048 12.2218C19.1318 12.2218 18.4036 11.9301 17.8202 11.3468C17.2369 10.7634 16.9452 10.0366 16.9452 9.16634C16.9452 8.31745 17.2369 7.59606 17.8202 7.00217C18.4036 6.40801 19.1304 6.11092 20.0007 6.11092C20.8495 6.11092 21.5709 6.40954 22.1648 7.00676C22.759 7.60398 23.0561 8.32245 23.0561 9.16218C23.0561 10.0352 22.7575 10.7634 22.1602 11.3468Z" fill="#F4BCAB"/>
<path fill-rule="evenodd" clip-rule="evenodd" d="M20.1257 34.886V33.8884H21.223L20.1257 34.886Z" fill="#E4572E"/>
<path fill-rule="evenodd" clip-rule="evenodd" d="M8.33398 16.6663C6.91732 16.6663 5.72982 16.1872 4.77148 15.2288C3.81315 14.2705 3.33398 13.083 3.33398 11.6663C3.33398 10.2775 3.81315 9.0969 4.77148 8.12468C5.72982 7.15245 6.91732 6.66634 8.33398 6.66634C9.72287 6.66634 10.9034 7.15245 11.8757 8.12468C12.8479 9.0969 13.334 10.2775 13.334 11.6663C13.334 13.083 12.8479 14.2705 11.8757 15.2288C10.9034 16.1872 9.72287 16.6663 8.33398 16.6663ZM9.91732 13.2497C9.49149 13.6755 8.96371 13.8884 8.33398 13.8884C7.70426 13.8884 7.17648 13.6755 6.75065 13.2497C6.32482 12.8238 6.1119 12.2961 6.1119 11.6663C6.1119 11.0366 6.32482 10.5088 6.75065 10.083C7.17648 9.65718 7.70426 9.44426 8.33398 9.44426C8.96371 9.44426 9.49149 9.65718 9.91732 10.083C10.3432 10.5088 10.5561 11.0366 10.5561 11.6663C10.5561 12.2961 10.3432 12.8238 9.91732 13.2497Z" fill="#F4BCAB"/>
</g>
</svg>
