<svg width="100%" height="100%" viewBox="0 0 52 52" fill="none" xmlns="http://www.w3.org/2000/svg">
<path d="M24.4925 38.6608C22.7231 38.6608 21.0624 38.33 19.5107 37.6686C17.9589 37.0072 16.6018 36.1026 15.4392 34.9549C14.2766 33.8071 13.3604 32.4668 12.6904 30.934C12.0204 29.4012 11.6854 27.7604 11.6854 26.0116C11.6854 24.263 12.0204 22.6219 12.6904 21.0882C13.3604 19.5548 14.2762 18.2193 15.4379 17.0817C16.5996 15.9439 17.957 15.0433 19.51 14.3798C21.0631 13.716 22.7255 13.3842 24.4973 13.3842C26.2689 13.3842 27.9317 13.7158 29.4858 14.3791C31.0396 15.0424 32.3925 15.9425 33.5443 17.0795C34.6964 18.2165 35.6083 19.5534 36.2802 21.0904C36.9523 22.6274 37.2883 24.2698 37.2883 26.0178C37.2883 27.7656 36.9522 29.4053 36.2799 30.9371C35.6078 32.4691 34.6955 33.8068 33.5431 34.9502C32.3908 36.0934 31.0367 36.9976 29.4807 37.663C27.9248 38.3282 26.262 38.6608 24.4925 38.6608ZM24.4831 36.5405C27.3897 36.5405 29.8612 35.5566 31.8976 33.5889C33.934 31.6213 34.9973 29.2318 35.0877 26.4205C35.0877 26.3674 35.089 26.3227 35.0915 26.2864C35.094 26.2503 35.0953 26.2098 35.0953 26.165C34.9391 26.6449 34.6474 27.0428 34.2202 27.3588C33.7932 27.6746 33.2954 27.8325 32.7269 27.8325H30.2429C29.5307 27.8325 28.9211 27.582 28.414 27.0809C27.9069 26.5796 27.6533 25.9771 27.6533 25.2734V23.994H22.4738V21.485C22.4738 20.7767 22.7277 20.1729 23.2354 19.6738C23.7429 19.1748 24.3531 18.9253 25.066 18.9253H26.3622V18.2406C26.3622 17.8821 26.5078 17.4456 26.7991 16.9311C27.0903 16.4167 27.4221 16.1176 27.7943 16.0335C27.2739 15.8748 26.7388 15.7483 26.1888 15.6538C25.639 15.5592 25.0714 15.5119 24.4859 15.5119C21.536 15.5119 19.023 16.5308 16.9469 18.5687C14.871 20.6063 13.8331 23.0921 13.8331 26.0262C13.8331 26.0461 13.8344 26.0647 13.8369 26.0819C13.8394 26.0993 13.8407 26.118 13.8407 26.1379H18.2223C19.6495 26.1379 20.8695 26.6378 21.8825 27.6377C22.8954 28.6377 23.4019 29.8409 23.4019 31.2474V32.5259H19.5211V35.3694C20.2656 35.7418 21.0545 36.0301 21.8875 36.2342C22.7208 36.4384 23.586 36.5405 24.4831 36.5405Z" fill="#EF9A82"/>
<path d="M24.5374 39.7927C20.594 39.7927 17.256 38.4423 14.5232 35.7415C11.7907 33.0407 10.4245 29.7822 10.4245 25.966C10.4245 22.1498 11.7924 18.8913 14.528 16.1905C17.2633 13.4897 20.5729 12.1393 24.4566 12.1393C28.34 12.1393 31.6404 13.4897 34.3578 16.1905C37.0755 18.8913 38.4343 22.1525 38.4343 25.974C38.4343 27.5098 38.1895 28.9801 37.6998 30.3851C37.2101 31.7901 36.4756 33.1086 35.4962 34.3406L48.4507 47.0243C48.8169 47.3783 49 47.8171 49 48.3406C49 48.8645 48.8169 49.3072 48.4507 49.6687C48.0802 50.0384 47.6286 50.2232 47.0958 50.2232C46.5634 50.2232 46.1222 50.0384 45.7721 49.6687L32.8715 36.9446C31.8031 37.84 30.5537 38.5384 29.1234 39.0399C27.6931 39.5418 26.1644 39.7927 24.5374 39.7927ZM24.4879 36.17C27.3502 36.17 29.7788 35.1734 31.7734 33.18C33.7681 31.1867 34.7654 28.782 34.7654 25.966C34.7654 23.15 33.7674 20.7454 31.7713 18.752C29.7755 16.7587 27.3477 15.762 24.4879 15.762C21.5982 15.762 19.1433 16.7587 17.1231 18.752C15.1033 20.7454 14.0934 23.15 14.0934 25.966C14.0934 28.782 15.1028 31.1867 17.1215 33.18C19.1402 35.1734 21.5957 36.17 24.4879 36.17Z" fill="#EF9A82"/>
<path d="M48.6365 6.57303L43.597 8.62508L41.9786 13.7643L39.9 8.78901L34.6945 7.19125L39.734 5.1392L41.3524 0L43.4309 4.97527L48.6365 6.57303Z" fill="#E4572E"/>
<path d="M16.1244 46.2621L12.1033 47.8994L10.812 52L9.15353 48.0302L5 46.7553L9.02104 45.118L10.3124 41.0174L11.9708 44.9872L16.1244 46.2621Z" fill="#E4572E"/>
</svg>
