<svg width="101" height="101" viewBox="0 0 101 101" fill="none" xmlns="http://www.w3.org/2000/svg">
<path d="M81.3369 79.0698V64.4186L75.1549 58.5581L72.8734 68.6674C72.6771 69.4488 72.2478 70.0471 71.5855 70.4622C70.9231 70.8773 70.1994 71.0116 69.4144 70.8651L54.8423 67.9349C54.0083 67.7884 53.3704 67.3733 52.9288 66.6895C52.4873 66.0058 52.3401 65.2488 52.4873 64.4186C52.6345 63.5884 53.0515 62.9413 53.7384 62.4773C54.4253 62.0134 55.1858 61.8791 56.0199 62.0744L67.2065 64.4186L71.9166 40.6837L66.6177 42.7349V49.7674C66.6177 50.5977 66.3356 51.2936 65.7714 51.8552C65.2071 52.4169 64.508 52.6977 63.6739 52.6977C62.8398 52.6977 62.1406 52.4169 61.5764 51.8552C61.0121 51.2936 60.73 50.5977 60.73 49.7674V40.8302C60.73 40.2442 60.8895 39.7192 61.2084 39.2552C61.5273 38.7913 61.9566 38.4372 62.4963 38.193L72.3582 33.9442C74.0755 33.2116 75.3389 32.7355 76.1484 32.5157C76.958 32.2959 77.7062 32.186 78.3931 32.186C79.4234 32.186 80.3802 32.4547 81.2633 32.9919C82.1465 33.5291 82.8579 34.2372 83.3976 35.1163L86.3415 39.8047C87.3718 41.4651 88.7088 42.9058 90.3525 44.1267C91.9961 45.3477 93.8973 46.1535 96.0562 46.5442C96.8903 46.6907 97.5894 47.057 98.1536 47.643C98.7179 48.2291 99 48.9372 99 49.7674C99 50.5977 98.7179 51.2814 98.1536 51.8186C97.5894 52.3558 96.9148 52.5756 96.1298 52.4779C93.4803 52.0872 91.0026 51.2692 88.6965 50.0238C86.3905 48.7785 84.428 47.2279 82.8089 45.3721L81.0425 54.1628L86.3415 59.1442C86.6359 59.4372 86.8566 59.7669 87.0038 60.1331C87.151 60.4994 87.2246 60.8779 87.2246 61.2686V79.0698C87.2246 79.9 86.9425 80.5959 86.3783 81.1576C85.814 81.7192 85.1149 82 84.2808 82C83.4467 82 82.7475 81.7192 82.1833 81.1576C81.619 80.5959 81.3369 79.9 81.3369 79.0698ZM82.8089 30.7209C81.1897 30.7209 79.8037 30.1471 78.6507 28.9994C77.4977 27.8517 76.9212 26.4721 76.9212 24.8605C76.9212 23.2488 77.4977 21.8692 78.6507 20.7215C79.8037 19.5738 81.1897 19 82.8089 19C84.428 19 85.814 19.5738 86.967 20.7215C88.12 21.8692 88.6965 23.2488 88.6965 24.8605C88.6965 26.4721 88.12 27.8517 86.967 28.9994C85.814 30.1471 84.428 30.7209 82.8089 30.7209Z" fill="#EF9A82"/>
<path fill-rule="evenodd" clip-rule="evenodd" d="M43.7186 45.7488C43.7186 46.8238 42.8431 47.6953 41.7631 47.6953L18.2963 47.6953C17.2163 47.6953 16.3408 46.8238 16.3408 45.7488C16.3408 44.6738 17.2163 43.8023 18.2963 43.8023L41.7631 43.8023C42.8431 43.8023 43.7186 44.6738 43.7186 45.7488Z" fill="#E4572E"/>
<path fill-rule="evenodd" clip-rule="evenodd" d="M38.5038 56.1302C38.5038 57.2052 37.6283 58.0767 36.5482 58.0767H3.95556C2.87554 58.0767 2 57.2052 2 56.1302C2 55.0552 2.87554 54.1837 3.95556 54.1837L36.5482 54.1837C37.6283 54.1837 38.5038 55.0552 38.5038 56.1302Z" fill="#E4572E"/>
<path fill-rule="evenodd" clip-rule="evenodd" d="M47.6297 79.4884C47.6297 80.5635 46.7542 81.435 45.6742 81.435H32.6371C31.5571 81.435 30.6816 80.5635 30.6816 79.4884C30.6816 78.4134 31.5571 77.5419 32.6371 77.5419H45.6742C46.7542 77.5419 47.6297 78.4134 47.6297 79.4884Z" fill="#E4572E"/>
<path fill-rule="evenodd" clip-rule="evenodd" d="M29.3778 79.4884C29.3778 80.5635 28.5023 81.435 27.4223 81.435H24.8149C23.7348 81.435 22.8593 80.5635 22.8593 79.4884C22.8593 78.4134 23.7348 77.5419 24.8149 77.5419H27.4223C28.5023 77.5419 29.3778 78.4134 29.3778 79.4884Z" fill="#E4572E"/>
<path fill-rule="evenodd" clip-rule="evenodd" d="M15.0371 45.7488C15.0371 46.8238 14.1615 47.6953 13.0815 47.6953H10.4741C9.39407 47.6953 8.51853 46.8238 8.51853 45.7488C8.51853 44.6738 9.39407 43.8023 10.4741 43.8023H13.0815C14.1615 43.8023 15.0371 44.6738 15.0371 45.7488Z" fill="#E4572E"/>
</svg>
