<svg width="24" height="25" viewBox="0 0 24 25" fill="none" xmlns="http://www.w3.org/2000/svg">
<mask id="mask0_1007_2990" style="mask-type:alpha" maskUnits="userSpaceOnUse" x="0" y="0" width="24" height="25">
<rect y="0.5" width="24" height="24" fill="#D9D9D9"/>
</mask>
<g mask="url(#mask0_1007_2990)">
<path d="M18.85 22.475C18.7167 22.475 18.5917 22.4542 18.475 22.4125C18.3583 22.3708 18.25 22.3 18.15 22.2L13.05 17.1C12.95 17 12.8792 16.8917 12.8375 16.775C12.7958 16.6583 12.775 16.5333 12.775 16.4C12.775 16.2667 12.7958 16.1417 12.8375 16.025C12.8792 15.9083 12.95 15.8 13.05 15.7L15.175 13.575C15.275 13.475 15.3833 13.4042 15.5 13.3625C15.6167 13.3208 15.7417 13.3 15.875 13.3C16.0083 13.3 16.1333 13.3208 16.25 13.3625C16.3667 13.4042 16.475 13.475 16.575 13.575L21.675 18.675C21.775 18.775 21.8458 18.8833 21.8875 19C21.9292 19.1167 21.95 19.2417 21.95 19.375C21.95 19.5083 21.9292 19.6333 21.8875 19.75C21.8458 19.8667 21.775 19.975 21.675 20.075L19.55 22.2C19.45 22.3 19.3417 22.3708 19.225 22.4125C19.1083 22.4542 18.9833 22.475 18.85 22.475ZM18.85 20.1L19.575 19.375L15.9 15.7L15.175 16.425L18.85 20.1ZM5.125 22.5C4.99167 22.5 4.8625 22.475 4.7375 22.425C4.6125 22.375 4.5 22.3 4.4 22.2L2.3 20.1C2.2 20 2.125 19.8875 2.075 19.7625C2.025 19.6375 2 19.5083 2 19.375C2 19.2417 2.025 19.1167 2.075 19C2.125 18.8833 2.2 18.775 2.3 18.675L7.6 13.375H9.725L10.575 12.525L6.45 8.4H5.025L2 5.375L4.825 2.55L7.85 5.575V7L11.975 11.125L14.875 8.225L13.8 7.15L15.2 5.75H12.375L11.675 5.05L15.225 1.5L15.925 2.2V5.025L17.325 3.625L20.875 7.175C21.1583 7.45833 21.375 7.77917 21.525 8.1375C21.675 8.49583 21.75 8.875 21.75 9.275C21.75 9.675 21.675 10.0583 21.525 10.425C21.375 10.7917 21.1583 11.1167 20.875 11.4L18.75 9.275L17.35 10.675L16.3 9.625L11.125 14.8V16.9L5.825 22.2C5.725 22.3 5.61667 22.375 5.5 22.425C5.38333 22.475 5.25833 22.5 5.125 22.5ZM5.125 20.1L9.375 15.85V15.125H8.65L4.4 19.375L5.125 20.1ZM5.125 20.1L4.4 19.375L4.775 19.725L5.125 20.1Z" fill="#E97958"/>
</g>
</svg>
