<svg width="40" height="40" viewBox="0 0 40 40" fill="none" xmlns="http://www.w3.org/2000/svg">
<mask id="mask0_1002_2677" style="mask-type:alpha" maskUnits="userSpaceOnUse" x="0" y="0" width="40" height="40">
<rect width="40" height="40" fill="#D9D9D9"/>
</mask>
<g mask="url(#mask0_1002_2677)">
<path d="M17.7226 24.4721L14.9035 37.1946C14.8385 37.5279 14.6694 37.801 14.3964 38.0138C14.1233 38.2268 13.8154 38.3333 13.4726 38.3333C13.0099 38.3333 12.6349 38.1574 12.3476 37.8054C12.0607 37.4538 11.9635 37.0603 12.056 36.625L16.7922 12.4721C16.9403 11.7593 17.2782 11.2154 17.806 10.8404C18.3337 10.4654 18.8893 10.2779 19.4726 10.2779C20.056 10.2779 20.6 10.4075 21.1047 10.6667C21.6094 10.9258 22.0192 11.3054 22.3339 11.8054L23.9726 14.4721C24.4912 15.3332 25.1926 16.104 26.0768 16.7846C26.9612 17.4651 27.9914 17.986 29.1672 18.3471V16.25C29.1672 15.9814 29.2621 15.7522 29.4518 15.5625C29.6418 15.3728 29.871 15.2779 30.1393 15.2779C30.4079 15.2779 30.6371 15.3728 30.8268 15.5625C31.0168 15.7522 31.1118 15.9814 31.1118 16.25V37.3613C31.1118 37.6296 31.0168 37.8588 30.8268 38.0488C30.6371 38.2385 30.4079 38.3333 30.1393 38.3333C29.871 38.3333 29.6418 38.2385 29.4518 38.0488C29.2621 37.8588 29.1672 37.6296 29.1672 37.3613V21.1946C27.7783 20.889 26.4774 20.3658 25.2643 19.625C24.0515 18.8842 22.9821 17.9721 22.056 16.8888L20.9172 22.5833L24.0285 25.5279C24.1765 25.676 24.2829 25.8357 24.3476 26.0071C24.4126 26.1782 24.4451 26.3564 24.4451 26.5417V36.9446C24.4451 37.3426 24.3132 37.6736 24.0493 37.9375C23.7854 38.2014 23.4543 38.3333 23.056 38.3333C22.6579 38.3333 22.3269 38.2014 22.0631 37.9375C21.7992 37.6736 21.6672 37.3426 21.6672 36.9446V28.2221L17.7226 24.4721Z" fill="#EF9A82"/>
<path d="M22.2226 8.77792C21.3615 8.77792 20.6232 8.47 20.0076 7.85417C19.3918 7.23833 19.0839 6.49986 19.0839 5.63875C19.0839 4.77764 19.3918 4.0393 20.0076 3.42375C20.6232 2.80792 21.3615 2.5 22.2226 2.5C23.0837 2.5 23.8222 2.80792 24.4381 3.42375C25.0539 4.0393 25.3618 4.77764 25.3618 5.63875C25.3618 6.49986 25.0539 7.23833 24.4381 7.85417C23.8222 8.47 23.0837 8.77792 22.2226 8.77792Z" fill="#EF9A82"/>
<path d="M11.0839 21.4167L9.16722 21.0417C8.79694 20.9769 8.50986 20.7849 8.30597 20.4654C8.10236 20.146 8.03291 19.7964 8.09764 19.4167L9.34764 12.875C9.49597 12.0231 9.94972 11.3726 10.7089 10.9237C11.4681 10.4746 12.2968 10.3379 13.1951 10.5138C13.5746 10.5788 13.8685 10.7756 14.0768 11.1042C14.2851 11.4328 14.3569 11.7869 14.2922 12.1667L12.7089 20.3054C12.6442 20.6851 12.4521 20.9815 12.1326 21.1946C11.8132 21.4074 11.4636 21.4814 11.0839 21.4167Z" fill="#E4572E"/>
</g>
</svg>
