<svg width="24" height="25" viewBox="0 0 24 25" fill="none" xmlns="http://www.w3.org/2000/svg">
<mask id="mask0_1007_2968" style="mask-type:alpha" maskUnits="userSpaceOnUse" x="0" y="0" width="24" height="25">
<rect y="0.5" width="24" height="24" fill="#D9D9D9"/>
</mask>
<g mask="url(#mask0_1007_2968)">
<path d="M6.8 13.5L12 16.5L17.2 13.5L13 11.075V14.5H11V11.075L6.8 13.5ZM11 8.775V8.35C10.2667 8.13333 9.66667 7.72083 9.2 7.1125C8.73333 6.50417 8.5 5.8 8.5 5C8.5 4.03333 8.84167 3.20833 9.525 2.525C10.2083 1.84167 11.0333 1.5 12 1.5C12.9667 1.5 13.7917 1.84167 14.475 2.525C15.1583 3.20833 15.5 4.03333 15.5 5C15.5 5.8 15.2667 6.50417 14.8 7.1125C14.3333 7.72083 13.7333 8.13333 13 8.35V8.775L20 12.8C20.3167 12.9833 20.5625 13.2292 20.7375 13.5375C20.9125 13.8458 21 14.1833 21 14.55V16.45C21 16.8167 20.9125 17.1542 20.7375 17.4625C20.5625 17.7708 20.3167 18.0167 20 18.2L13 22.225C12.6833 22.4083 12.35 22.5 12 22.5C11.65 22.5 11.3167 22.4083 11 22.225L4 18.2C3.68333 18.0167 3.4375 17.7708 3.2625 17.4625C3.0875 17.1542 3 16.8167 3 16.45V14.55C3 14.1833 3.0875 13.8458 3.2625 13.5375C3.4375 13.2292 3.68333 12.9833 4 12.8L11 8.775ZM11 18.225L5 14.775V16.45L12 20.5L19 16.45V14.775L13 18.225C12.6833 18.4083 12.35 18.5 12 18.5C11.65 18.5 11.3167 18.4083 11 18.225ZM12 6.5C12.4167 6.5 12.7708 6.35417 13.0625 6.0625C13.3542 5.77083 13.5 5.41667 13.5 5C13.5 4.58333 13.3542 4.22917 13.0625 3.9375C12.7708 3.64583 12.4167 3.5 12 3.5C11.5833 3.5 11.2292 3.64583 10.9375 3.9375C10.6458 4.22917 10.5 4.58333 10.5 5C10.5 5.41667 10.6458 5.77083 10.9375 6.0625C11.2292 6.35417 11.5833 6.5 12 6.5Z" fill="#E97958"/>
</g>
</svg>
