<svg width="24" height="25" viewBox="0 0 24 25" fill="none" xmlns="http://www.w3.org/2000/svg">
<mask id="mask0_1007_2998" style="mask-type:alpha" maskUnits="userSpaceOnUse" x="0" y="0" width="24" height="25">
<rect y="0.5" width="24" height="24" fill="#D9D9D9"/>
</mask>
<g mask="url(#mask0_1007_2998)">
<path d="M8.70026 13.425L10.0753 14.35L11.5503 13.6C11.6836 13.5167 11.8336 13.475 12.0003 13.475C12.1669 13.475 12.3169 13.5167 12.4503 13.6L13.9253 14.35L15.2503 13.475L14.2503 11.5H9.65026L8.70026 13.425ZM5.22526 20.5H18.7503L16.1503 15.275L14.5503 16.35C14.4003 16.45 14.2378 16.5042 14.0628 16.5125C13.8878 16.5208 13.7169 16.4833 13.5503 16.4L12.0003 15.625L10.4503 16.4C10.2836 16.4833 10.1128 16.5167 9.93776 16.5C9.76276 16.4833 9.60026 16.425 9.45026 16.325L7.80026 15.25L5.22526 20.5ZM3.60026 22.5C3.21693 22.5 2.92943 22.3417 2.73776 22.025C2.5461 21.7083 2.5336 21.3833 2.70026 21.05L7.85026 10.625C8.01693 10.2917 8.26276 10.0208 8.58776 9.8125C8.91276 9.60417 9.26693 9.5 9.65026 9.5H11.0003V3.5C11.0003 3.21667 11.0961 2.97917 11.2878 2.7875C11.4794 2.59583 11.7169 2.5 12.0003 2.5H17.2003C17.3836 2.5 17.5253 2.57917 17.6253 2.7375C17.7253 2.89583 17.7336 3.05833 17.6503 3.225L17.1003 4.275C17.0669 4.35833 17.0503 4.43333 17.0503 4.5C17.0503 4.56667 17.0669 4.64167 17.1003 4.725L17.6503 5.775C17.7336 5.94167 17.7253 6.10417 17.6253 6.2625C17.5253 6.42083 17.3836 6.5 17.2003 6.5H13.0003V9.5H14.2503C14.6336 9.5 14.9836 9.6 15.3003 9.8C15.6169 10 15.8669 10.2667 16.0503 10.6L21.2753 21.05C21.4419 21.3833 21.4294 21.7083 21.2378 22.025C21.0461 22.3417 20.7586 22.5 20.3753 22.5H3.60026Z" fill="#E97958"/>
</g>
</svg>
