<svg width="24" height="25" viewBox="0 0 24 25" fill="none" xmlns="http://www.w3.org/2000/svg">
<mask id="mask0_1007_2976" style="mask-type:alpha" maskUnits="userSpaceOnUse" x="0" y="0" width="24" height="25">
<rect y="0.5" width="24" height="24" fill="#D9D9D9"/>
</mask>
<g mask="url(#mask0_1007_2976)">
<path d="M10 21.5C8.9 21.5 7.95833 21.1083 7.175 20.325C6.39167 19.5417 6 18.6 6 17.5C6 16.4 6.39167 15.4583 7.175 14.675C7.95833 13.8917 8.9 13.5 10 13.5C10.3833 13.5 10.7375 13.5458 11.0625 13.6375C11.3875 13.7292 11.7 13.8667 12 14.05V4.5C12 4.21667 12.0958 3.97917 12.2875 3.7875C12.4792 3.59583 12.7167 3.5 13 3.5H17C17.2833 3.5 17.5208 3.59583 17.7125 3.7875C17.9042 3.97917 18 4.21667 18 4.5V6.5C18 6.78333 17.9042 7.02083 17.7125 7.2125C17.5208 7.40417 17.2833 7.5 17 7.5H14V17.5C14 18.6 13.6083 19.5417 12.825 20.325C12.0417 21.1083 11.1 21.5 10 21.5Z" fill="#E97958"/>
</g>
</svg>
