<svg width="100%" height="100%" viewBox="0 0 52 52" fill="none" xmlns="http://www.w3.org/2000/svg">
<path fill-rule="evenodd" clip-rule="evenodd" d="M38.8205 3.79716C38.4665 3.79716 38.1795 3.51382 38.1795 3.1643V0.63286C38.1795 0.283341 38.4665 1.52785e-08 38.8205 0C39.1745 -1.52774e-08 39.4615 0.283341 39.4615 0.63286V3.1643C39.4615 3.51382 39.1745 3.79716 38.8205 3.79716Z" fill="#E4572E"/>
<path fill-rule="evenodd" clip-rule="evenodd" d="M44.2122 6.08491C43.9505 5.8495 43.9317 5.44922 44.1701 5.19087L45.8971 3.31973C46.1356 3.06138 46.541 3.04279 46.8027 3.2782C47.0644 3.51361 47.0832 3.91389 46.8448 4.17224L45.1178 6.04337C44.8793 6.30172 44.4739 6.32032 44.2122 6.08491Z" fill="#E4572E"/>
<path fill-rule="evenodd" clip-rule="evenodd" d="M45.3406 16.7323C45.5393 16.4429 45.9378 16.3673 46.2309 16.5634L48.3535 17.9836C48.6465 18.1797 48.7231 18.5732 48.5245 18.8626C48.3259 19.1519 47.9273 19.2275 47.6342 19.0314L45.5117 17.6112C45.2186 17.4151 45.142 17.0216 45.3406 16.7323Z" fill="#E4572E"/>
<path fill-rule="evenodd" clip-rule="evenodd" d="M47.1538 11.3915C47.1538 11.042 47.4408 10.7586 47.7949 10.7586H50.359C50.713 10.7586 51 11.042 51 11.3915C51 11.741 50.713 12.0243 50.359 12.0243H47.7949C47.4408 12.0243 47.1538 11.741 47.1538 11.3915Z" fill="#E4572E"/>
<path d="M38.8205 20.2515C38.5427 20.2515 38.2917 20.1856 38.0673 20.0538C37.8429 19.9219 37.6667 19.7452 37.5385 19.5237C37.1859 19.5237 36.8841 19.3998 36.633 19.1519C36.3819 18.9041 36.2564 18.6061 36.2564 18.258V16.0114C35.6261 15.6 35.1213 15.0568 34.742 14.3817C34.3627 13.7067 34.1731 12.9736 34.1731 12.1826C34.1731 10.9063 34.6245 9.82252 35.5272 8.93124C36.43 8.03996 37.5278 7.59432 38.8205 7.59432C40.1133 7.59432 41.211 8.03996 42.1138 8.93124C43.0166 9.82252 43.4679 10.9063 43.4679 12.1826C43.4679 12.9947 43.2783 13.7331 42.899 14.3976C42.5198 15.0621 42.015 15.6 41.3846 16.0114V18.258C41.3846 18.6061 41.2591 18.9041 41.008 19.1519C40.7569 19.3998 40.4551 19.5237 40.1026 19.5237C39.9744 19.7452 39.7981 19.9219 39.5737 20.0538C39.3494 20.1856 39.0983 20.2515 38.8205 20.2515ZM37.5385 18.258H40.1026V17.6884H37.5385V18.258ZM37.5385 17.0556H40.1026V16.4544H37.5385V17.0556ZM39.3013 15.1886V13.4799L40.375 12.4199C40.4712 12.325 40.5192 12.2142 40.5192 12.0876C40.5192 11.9611 40.4712 11.8503 40.375 11.7554C40.2788 11.6604 40.1667 11.613 40.0385 11.613C39.9103 11.613 39.7981 11.6604 39.7019 11.7554L38.8205 12.6256L37.9391 11.7554C37.8429 11.6604 37.7308 11.613 37.6026 11.613C37.4744 11.613 37.3622 11.6604 37.266 11.7554C37.1699 11.8503 37.1218 11.9611 37.1218 12.0876C37.1218 12.2142 37.1699 12.325 37.266 12.4199L38.3397 13.4799V15.1886H39.3013Z" fill="#E4572E"/>
<path d="M13.0384 23.2647L29.6152 14.2355C26.619 12.3395 23.2505 11.3915 19.5096 11.3915C14.3681 11.3915 9.99773 13.1681 6.39864 16.7213C2.79955 20.2746 1 24.5893 1 29.6653C1 32.271 1.53986 34.7498 2.61959 37.1018C3.69932 39.4537 5.21608 41.5095 7.16987 43.2692V49.9696C7.16987 50.5449 7.36697 51.0271 7.76115 51.4163C8.15534 51.8054 8.64379 52 9.2265 52H23.6229C24.2056 52 24.694 51.8054 25.0882 51.4163C25.4824 51.0271 25.6795 50.5449 25.6795 49.9696V47.9392H29.7927C30.9239 47.9392 31.8922 47.5415 32.6977 46.7463C33.5032 45.951 33.906 44.995 33.906 43.8783V37.787H38.0192C38.7048 37.787 39.2532 37.5248 39.6645 37.0002C40.0759 36.4757 40.1958 35.892 40.0244 35.249L37.3508 24.8431C37.2199 24.3172 37.069 23.8045 36.898 23.3048L13.0384 23.2647Z" fill="#EF9A82"/>
</svg>
