<svg width="24" height="25" viewBox="0 0 24 25" fill="none" xmlns="http://www.w3.org/2000/svg">
<mask id="mask0_1007_2924" style="mask-type:alpha" maskUnits="userSpaceOnUse" x="0" y="0" width="24" height="25">
<rect y="0.5" width="24" height="24" fill="#D9D9D9"/>
</mask>
<g mask="url(#mask0_1007_2924)">
<path d="M12 22.5C10.6333 22.5 9.34167 22.2375 8.125 21.7125C6.90833 21.1875 5.84583 20.4708 4.9375 19.5625C4.02917 18.6542 3.3125 17.5917 2.7875 16.375C2.2625 15.1583 2 13.8667 2 12.5C2 11.1167 2.27083 9.81667 2.8125 8.6C3.35417 7.38333 4.0875 6.325 5.0125 5.425C5.9375 4.525 7.01667 3.8125 8.25 3.2875C9.48333 2.7625 10.8 2.5 12.2 2.5C13.5333 2.5 14.7917 2.72917 15.975 3.1875C17.1583 3.64583 18.1958 4.27917 19.0875 5.0875C19.9792 5.89583 20.6875 6.85417 21.2125 7.9625C21.7375 9.07083 22 10.2667 22 11.55C22 13.4667 21.4167 14.9375 20.25 15.9625C19.0833 16.9875 17.6667 17.5 16 17.5H14.15C14 17.5 13.8958 17.5417 13.8375 17.625C13.7792 17.7083 13.75 17.8 13.75 17.9C13.75 18.1 13.875 18.3875 14.125 18.7625C14.375 19.1375 14.5 19.5667 14.5 20.05C14.5 20.8833 14.2708 21.5 13.8125 21.9C13.3542 22.3 12.75 22.5 12 22.5ZM6.5 13.5C6.93333 13.5 7.29167 13.3583 7.575 13.075C7.85833 12.7917 8 12.4333 8 12C8 11.5667 7.85833 11.2083 7.575 10.925C7.29167 10.6417 6.93333 10.5 6.5 10.5C6.06667 10.5 5.70833 10.6417 5.425 10.925C5.14167 11.2083 5 11.5667 5 12C5 12.4333 5.14167 12.7917 5.425 13.075C5.70833 13.3583 6.06667 13.5 6.5 13.5ZM9.5 9.5C9.93333 9.5 10.2917 9.35833 10.575 9.075C10.8583 8.79167 11 8.43333 11 8C11 7.56667 10.8583 7.20833 10.575 6.925C10.2917 6.64167 9.93333 6.5 9.5 6.5C9.06667 6.5 8.70833 6.64167 8.425 6.925C8.14167 7.20833 8 7.56667 8 8C8 8.43333 8.14167 8.79167 8.425 9.075C8.70833 9.35833 9.06667 9.5 9.5 9.5ZM14.5 9.5C14.9333 9.5 15.2917 9.35833 15.575 9.075C15.8583 8.79167 16 8.43333 16 8C16 7.56667 15.8583 7.20833 15.575 6.925C15.2917 6.64167 14.9333 6.5 14.5 6.5C14.0667 6.5 13.7083 6.64167 13.425 6.925C13.1417 7.20833 13 7.56667 13 8C13 8.43333 13.1417 8.79167 13.425 9.075C13.7083 9.35833 14.0667 9.5 14.5 9.5ZM17.5 13.5C17.9333 13.5 18.2917 13.3583 18.575 13.075C18.8583 12.7917 19 12.4333 19 12C19 11.5667 18.8583 11.2083 18.575 10.925C18.2917 10.6417 17.9333 10.5 17.5 10.5C17.0667 10.5 16.7083 10.6417 16.425 10.925C16.1417 11.2083 16 11.5667 16 12C16 12.4333 16.1417 12.7917 16.425 13.075C16.7083 13.3583 17.0667 13.5 17.5 13.5ZM12 20.5C12.15 20.5 12.2708 20.4583 12.3625 20.375C12.4542 20.2917 12.5 20.1833 12.5 20.05C12.5 19.8167 12.375 19.5417 12.125 19.225C11.875 18.9083 11.75 18.4333 11.75 17.8C11.75 17.1 11.9917 16.5417 12.475 16.125C12.9583 15.7083 13.55 15.5 14.25 15.5H16C17.1 15.5 18.0417 15.1792 18.825 14.5375C19.6083 13.8958 20 12.9 20 11.55C20 9.53333 19.2292 7.85417 17.6875 6.5125C16.1458 5.17083 14.3167 4.5 12.2 4.5C9.93333 4.5 8 5.275 6.4 6.825C4.8 8.375 4 10.2667 4 12.5C4 14.7167 4.77917 16.6042 6.3375 18.1625C7.89583 19.7208 9.78333 20.5 12 20.5Z" fill="#E97958"/>
</g>
</svg>
