<svg width="40" height="40" viewBox="0 0 40 40" fill="none" xmlns="http://www.w3.org/2000/svg">
<path d="M25.75 33.6667H14.25L12.5833 27H9.16667L11.0417 34.4583C11.2361 35.2083 11.625 35.8194 12.2083 36.2917C12.7917 36.7639 13.4722 37 14.25 37H25.75C26.5278 37 27.2083 36.7639 27.7917 36.2917C28.375 35.8194 28.7639 35.2083 28.9583 34.4583L30.8333 27H27.4167L25.75 33.6667Z" fill="#F4BCAB"/>
<path d="M22.3917 7.34722C20.6972 9.18056 19.85 11.3472 19.85 13.8472C19.85 11.3472 19.0028 9.18056 17.3083 7.34722C15.6139 5.51389 13.5028 4.40278 10.975 4.01389C10.8361 3.98611 10.7111 4 10.6 4.05556C10.4889 4.11111 10.3778 4.18056 10.2667 4.26389C10.1556 4.34722 10.0792 4.45139 10.0375 4.57639C9.99583 4.70139 9.98889 4.83333 10.0167 4.97222C10.3222 7.16667 11.2181 9.07639 12.7042 10.7014C14.1903 12.3264 16.0167 13.3194 18.1833 13.6806V17H21.5L21.5167 13.6806C23.6833 13.3194 25.5097 12.3264 26.9958 10.7014C28.4819 9.07639 29.3778 7.16667 29.6833 4.97222C29.7111 4.83333 29.7042 4.70139 29.6625 4.57639C29.6208 4.45139 29.5444 4.34722 29.4333 4.26389C29.3222 4.18056 29.2111 4.11111 29.1 4.05556C28.9889 4 28.8639 3.98611 28.725 4.01389C26.1972 4.40278 24.0861 5.51389 22.3917 7.34722Z" fill="#E4572E"/>
<path fill-rule="evenodd" clip-rule="evenodd" d="M12.5833 27H27.4167H30.8333H31.6667C32.5833 27 33.3681 26.6736 34.0208 26.0208C34.6736 25.3681 35 24.5833 35 23.6667V18.6667C35 18.1944 34.8403 17.7986 34.5208 17.4792C34.2014 17.1597 33.8056 17 33.3333 17H21.5H18.1833H6.66667C6.19444 17 5.79861 17.1597 5.47917 17.4792C5.15972 17.7986 5 18.1944 5 18.6667V23.6667C5 24.5833 5.32639 25.3681 5.97917 26.0208C6.63194 26.6736 7.41667 27 8.33333 27H9.16667H12.5833ZM31.6667 23.6667H8.33333V20.3333H31.6667V23.6667Z" fill="#F4BCAB"/>
</svg>
