<svg width="24" height="25" viewBox="0 0 24 25" fill="none" xmlns="http://www.w3.org/2000/svg">
<mask id="mask0_1007_2980" style="mask-type:alpha" maskUnits="userSpaceOnUse" x="0" y="0" width="24" height="25">
<rect y="0.5" width="24" height="24" fill="#D9D9D9"/>
</mask>
<g mask="url(#mask0_1007_2980)">
<path d="M6.8 20.5C6.3 20.5 5.875 20.325 5.525 19.975C5.175 19.625 5 19.2 5 18.7C5 18.35 5.1 18.0208 5.3 17.7125C5.5 17.4042 5.76667 17.1833 6.1 17.05L10 15.5V13.25C9.2 14.1667 8.3 14.8958 7.3 15.4375C6.3 15.9792 5.21667 16.3167 4.05 16.45C3.76667 16.4833 3.52083 16.4042 3.3125 16.2125C3.10417 16.0208 3 15.7833 3 15.5C3 15.2167 3.09167 14.975 3.275 14.775C3.45833 14.575 3.69167 14.4583 3.975 14.425C4.89167 14.2917 5.73333 14.0083 6.5 13.575C7.26667 13.1417 7.96667 12.55 8.6 11.8L9.95 10.2C10.15 9.96667 10.3833 9.79167 10.65 9.675C10.9167 9.55833 11.2 9.5 11.5 9.5H12.5C12.8 9.5 13.0833 9.55833 13.35 9.675C13.6167 9.79167 13.85 9.96667 14.05 10.2L15.4 11.8C16.0333 12.55 16.7333 13.1417 17.5 13.575C18.2667 14.0083 19.1083 14.2917 20.025 14.425C20.3083 14.4583 20.5417 14.575 20.725 14.775C20.9083 14.975 21 15.2167 21 15.5C21 15.7833 20.8958 16.0208 20.6875 16.2125C20.4792 16.4042 20.2333 16.4833 19.95 16.45C18.7833 16.3167 17.7 15.9792 16.7 15.4375C15.7 14.8958 14.8 14.1667 14 13.25V15.5L17.9 17.05C18.2333 17.1833 18.5 17.4042 18.7 17.7125C18.9 18.0208 19 18.35 19 18.7C19 19.2 18.825 19.625 18.475 19.975C18.125 20.325 17.7 20.5 17.2 20.5H10V20C10 19.5667 10.1417 19.2083 10.425 18.925C10.7083 18.6417 11.0667 18.5 11.5 18.5H14.5C14.65 18.5 14.7708 18.4542 14.8625 18.3625C14.9542 18.2708 15 18.15 15 18C15 17.85 14.9542 17.7292 14.8625 17.6375C14.7708 17.5458 14.65 17.5 14.5 17.5H11.5C10.8 17.5 10.2083 17.7417 9.725 18.225C9.24167 18.7083 9 19.3 9 20V20.5H6.8ZM12 8.5C11.45 8.5 10.9792 8.30417 10.5875 7.9125C10.1958 7.52083 10 7.05 10 6.5C10 5.95 10.1958 5.47917 10.5875 5.0875C10.9792 4.69583 11.45 4.5 12 4.5C12.55 4.5 13.0208 4.69583 13.4125 5.0875C13.8042 5.47917 14 5.95 14 6.5C14 7.05 13.8042 7.52083 13.4125 7.9125C13.0208 8.30417 12.55 8.5 12 8.5Z" fill="#E97958"/>
</g>
</svg>
