<svg width="101" height="100" viewBox="0 0 101 100" fill="none" xmlns="http://www.w3.org/2000/svg">
<path d="M7.75758 55.9786C7.75758 53.9508 9.40372 52.3069 11.4343 52.3069H89.5657C91.5963 52.3069 93.2424 53.9508 93.2424 55.9786V63.322C93.2424 65.3499 91.5963 66.9938 89.5657 66.9938H11.4343C9.40372 66.9938 7.75758 65.3499 7.75758 63.322V55.9786Z" fill="#FFE9E3"/>
<path fill-rule="evenodd" clip-rule="evenodd" d="M11.4343 49.5531H89.5657C93.1192 49.5531 96 52.4299 96 55.9786V63.322C96 66.8708 93.1192 69.7476 89.5657 69.7476H11.4343C7.88076 69.7476 5 66.8708 5 63.322V55.9786C5 52.4299 7.88075 49.5531 11.4343 49.5531ZM11.4343 52.3069C9.40372 52.3069 7.75758 53.9508 7.75758 55.9786V63.322C7.75758 65.3499 9.40372 66.9938 11.4343 66.9938H89.5657C91.5963 66.9938 93.2424 65.3499 93.2424 63.322V55.9786C93.2424 53.9508 91.5963 52.3069 89.5657 52.3069H11.4343Z" fill="#EF9A82"/>
<path d="M19.7071 14.6717C19.7071 12.6439 21.3532 11 23.3838 11H77.6162C79.6468 11 81.2929 12.6439 81.2929 14.6717V46.7993H19.7071V14.6717Z" fill="#FFE9E3"/>
<path fill-rule="evenodd" clip-rule="evenodd" d="M19.7071 46.7993H22.4646V14.6717C22.4646 14.1648 22.8762 13.7538 23.3838 13.7538H77.6162C78.1238 13.7538 78.5354 14.1648 78.5354 14.6717V46.7993H81.2929V14.6717C81.2929 12.6439 79.6468 11 77.6162 11H23.3838C21.3532 11 19.7071 12.6439 19.7071 14.6717V46.7993Z" fill="#EF9A82"/>
<path d="M82.4163 89.7917C81.8972 90.0383 81.3781 90.0659 80.859 89.8747C80.3397 89.6835 79.9566 89.3285 79.71 88.8099L74.9352 78.5853L70.7349 84.4497C70.369 84.9597 69.8924 85.117 69.3051 84.9217C68.7179 84.7261 68.4242 84.3182 68.4242 83.6978V62.7766C68.4242 62.2412 68.6646 61.8587 69.1454 61.6292C69.6265 61.3997 70.0797 61.4464 70.5051 61.7692L86.9739 74.6967C87.4591 75.0792 87.5974 75.5552 87.3891 76.1249C87.1805 76.6942 86.774 76.9789 86.1696 76.9789H78.7142L83.3994 87.0888C83.6463 87.6074 83.674 88.1259 83.4825 88.6443C83.291 89.1627 82.9356 89.5451 82.4163 89.7917Z" fill="#E4572E"/>
<path fill-rule="evenodd" clip-rule="evenodd" d="M35.3333 32.1124C35.3333 31.6054 35.7449 31.1945 36.2525 31.1945H63.8283C64.3359 31.1945 64.7475 31.6054 64.7475 32.1124C64.7475 32.6194 64.3359 33.0303 63.8283 33.0303H36.2525C35.7449 33.0303 35.3333 32.6194 35.3333 32.1124Z" fill="#E97958"/>
<path fill-rule="evenodd" clip-rule="evenodd" d="M38.0909 36.7021C38.0909 36.1951 38.5024 35.7841 39.0101 35.7841H61.0707C61.5784 35.7841 61.9899 36.1951 61.9899 36.7021C61.9899 37.209 61.5784 37.62 61.0707 37.62H39.0101C38.5024 37.62 38.0909 37.209 38.0909 36.7021Z" fill="#E97958"/>
<path fill-rule="evenodd" clip-rule="evenodd" d="M20.6263 59.6503C20.6263 59.1434 21.0378 58.7324 21.5455 58.7324H36.2525C36.7602 58.7324 37.1717 59.1434 37.1717 59.6503C37.1717 60.1573 36.7602 60.5682 36.2525 60.5682H21.5455C21.0378 60.5682 20.6263 60.1573 20.6263 59.6503Z" fill="#E97958"/>
<path fill-rule="evenodd" clip-rule="evenodd" d="M39.0101 59.6503C39.0101 59.1434 39.4216 58.7324 39.9293 58.7324H41.7677C42.2753 58.7324 42.6869 59.1434 42.6869 59.6503C42.6869 60.1573 42.2753 60.5682 41.7677 60.5682H39.9293C39.4216 60.5682 39.0101 60.1573 39.0101 59.6503Z" fill="#E97958"/>
<path fill-rule="evenodd" clip-rule="evenodd" d="M12.3535 59.6503C12.3535 59.1434 12.7651 58.7324 13.2727 58.7324H17.8687C18.3763 58.7324 18.7879 59.1434 18.7879 59.6503C18.7879 60.1573 18.3763 60.5682 17.8687 60.5682H13.2727C12.7651 60.5682 12.3535 60.1573 12.3535 59.6503Z" fill="#E97958"/>
<path d="M52.4275 27.8049C50.984 27.8049 49.757 27.3003 48.7465 26.2912C47.7361 25.2822 47.2309 24.0568 47.2309 22.6152C47.2309 21.1735 47.7361 19.9482 48.7465 18.9392C49.757 17.9301 50.984 17.4255 52.4275 17.4255C53.8712 17.4255 55.0983 17.9301 56.1088 18.9392C57.1191 19.9482 57.6244 21.1735 57.6244 22.6152C57.6244 24.0568 57.1191 25.2822 56.1088 26.2912C55.0983 27.3003 53.8712 27.8049 52.4275 27.8049ZM46.0246 27.0519C45.2879 26.6195 44.7007 26.007 44.2628 25.2143C43.825 24.4216 43.6061 23.5552 43.6061 22.6152C43.6061 21.6751 43.8264 20.8087 44.2671 20.0161C44.7078 19.2234 45.2907 18.6166 46.0159 18.1958C46.3054 18.0016 46.5803 17.979 46.8405 18.128C47.1008 18.2769 47.2309 18.5157 47.2309 18.8443C47.2309 18.9578 47.1977 19.0789 47.1313 19.2075C47.0649 19.3361 46.9778 19.4404 46.8698 19.5202C46.3476 19.8506 45.9437 20.2896 45.6582 20.8372C45.3727 21.3849 45.23 21.9775 45.23 22.6152C45.23 23.2528 45.3727 23.8455 45.6582 24.3932C45.9437 24.9408 46.3476 25.3798 46.8698 25.7101C46.9778 25.79 47.0649 25.8917 47.1313 26.0152C47.1977 26.1387 47.2309 26.2623 47.2309 26.386C47.2309 26.716 47.1036 26.958 46.8491 27.1121C46.5947 27.2661 46.3199 27.246 46.0246 27.0519ZM52.4275 26.1832C53.4201 26.1832 54.2637 25.8363 54.9584 25.1426C55.6531 24.4487 56.0004 23.6062 56.0004 22.6152C56.0004 21.6241 55.6531 20.7817 54.9584 20.0878C54.2637 19.3941 53.4201 19.0472 52.4275 19.0472C51.4351 19.0472 50.5916 19.3941 49.8969 20.0878C49.2022 20.7817 48.8548 21.6241 48.8548 22.6152C48.8548 23.6062 49.2022 24.4487 49.8969 25.1426C50.5916 25.8363 51.4351 26.1832 52.4275 26.1832Z" fill="#E97958"/>
</svg>
