<svg width="40" height="40" viewBox="0 0 40 40" fill="none" xmlns="http://www.w3.org/2000/svg">
<mask id="mask0_1002_2760" style="mask-type:alpha" maskUnits="userSpaceOnUse" x="0" y="0" width="40" height="40">
<rect width="40" height="40" fill="#D9D9D9"/>
</mask>
<g mask="url(#mask0_1002_2760)">
<path fill-rule="evenodd" clip-rule="evenodd" d="M19.9993 35.5413C19.6105 35.5413 19.2216 35.4719 18.8327 35.333C18.4438 35.1941 18.0966 34.9858 17.791 34.708C15.9855 33.0413 14.3882 31.4163 12.9993 29.833C11.6105 28.2497 10.4507 26.715 9.52018 25.2288C8.58963 23.7427 7.88129 22.3122 7.39518 20.9372C6.90907 19.5622 6.66602 18.2497 6.66602 16.9997C6.66602 12.833 8.00629 9.51356 10.6868 7.04134C13.3674 4.56912 16.4716 3.33301 19.9993 3.33301C23.5271 3.33301 26.6313 4.56912 29.3118 7.04134C31.9924 9.51356 33.3327 12.833 33.3327 16.9997C33.3327 18.2497 33.0896 19.5622 32.6035 20.9372C32.1174 22.3122 31.4091 23.7427 30.4785 25.2288C29.548 26.715 28.3882 28.2497 26.9993 29.833C25.6105 31.4163 24.0132 33.0413 22.2077 34.708C21.9021 34.9858 21.5549 35.1941 21.166 35.333C20.7771 35.4719 20.3882 35.5413 19.9993 35.5413ZM27.541 23.7705C25.9021 26.3122 23.3882 29.1386 19.9993 32.2497C16.6105 29.1386 14.0966 26.3122 12.4577 23.7705C10.8188 21.2288 9.99935 18.9719 9.99935 16.9997C9.99935 13.9719 10.9646 11.4927 12.8952 9.56217C14.8257 7.63162 17.1938 6.66634 19.9993 6.66634C22.8049 6.66634 25.173 7.63162 27.1035 9.56217C29.0341 11.4927 29.9993 13.9719 29.9993 16.9997C29.9993 18.9719 29.1799 21.2288 27.541 23.7705Z" fill="#F4BCAB"/>
<path d="M18.2493 17.4997L17.0827 16.333C16.7493 15.9997 16.3605 15.833 15.916 15.833C15.4716 15.833 15.0827 15.9997 14.7493 16.333C14.416 16.6663 14.2493 17.0622 14.2493 17.5205C14.2493 17.9788 14.416 18.3747 14.7493 18.708L17.0827 21.083C17.416 21.4163 17.8049 21.583 18.2493 21.583C18.6938 21.583 19.0827 21.4163 19.416 21.083L25.3327 15.1663C25.666 14.833 25.8327 14.4372 25.8327 13.9788C25.8327 13.5205 25.666 13.1247 25.3327 12.7913C24.9993 12.458 24.6035 12.2913 24.1452 12.2913C23.6868 12.2913 23.291 12.458 22.9577 12.7913L18.2493 17.4997Z" fill="#E4572E"/>
</g>
</svg>
